<svg xmlns="http://www.w3.org/2000/svg" xmlns:xlink="http://www.w3.org/1999/xlink" version="1.1" x="0px" y="0px" viewBox="0 0 100 125" style="enable-background:new 0 0 100 100;" xml:space="preserve"><path d="M54.6040344,5.0020084C35.4861183,5.2127476,22.4692898,16.8167,25.2223377,30.942606  c0.0715389,0.3669357,0.15135,0.7314796,0.2332935,1.0952473c-2.9230099,6.2635536-6.0053806,11.7295189-9.2771015,16.2473831  c-0.556736,1.0578308,0.3699722,2.2451668,1.7523441,2.2451668h7.8208637v10.4935837  c0,3.5606537,2.8865604,6.4472122,6.4472141,6.4472122h16.8463821v26.6707916C49.0453339,94.6158752,49.4295273,95,49.903347,95  h24.7540398c0.4738235,0,0.8579483-0.3841248,0.8579483-0.8580093v-37.8722  c0.4628983-2.9179001,8.4703979-20.6084023,8.4703979-25.3271847C83.985733,16.6159782,70.8300934,4.8231292,54.6040344,5.0020084z   M54.2352257,33.3103638c-11.3774452,0-20.6007156-5.4586601-20.6007156-12.1922894S43.6551094,8.2879457,55.0325584,8.2879457  c11.3775063,0,19.8033791,6.0965004,19.8033791,12.8301287S65.6126709,33.3103638,54.2352257,33.3103638z M48.4984016,16.3574715  l3.9974785,2.3080845l-0.3585358,0.6211376l-3.9974823-2.3080845L48.4984016,16.3574715z M52.1373444,23.2813721  l0.3585358,0.6211376l-3.9974785,2.3080845l-0.3585396-0.6211376L52.1373444,23.2813721z M43.9631119,18.9761238h0.7170753v4.615818  h-0.7170753V18.9761238z M70.234787,14.5375395c-0.3911209,0-0.7077942,0.3134794-0.7156296,0.7026978l-4.8051758,2.8170481  l-5.5860138-3.2232475l-5.4031601,3.119278l-0.0466118-0.0286884l-5.3601151-3.0905895l-5.1840401,2.9899483l-3.3319855-2.2774258  c0.0151634-0.2486601-0.0942307-0.4987221-0.3148384-0.6495199c-0.3337631-0.2281342-0.7892456-0.1424828-1.0173798,0.1912823  c-0.2281113,0.333765-0.1424828,0.7892246,0.1912613,1.0173578c0.2206078,0.1507778,0.4932518,0.1619148,0.7194176,0.0575314  l3.3515472,2.2907753v5.3246422l-3.3515472,2.2907963c-0.2261658-0.1043854-0.4988098-0.0932465-0.7194176,0.0575314  c-0.333744,0.2281113-0.4193726,0.6835918-0.1912613,1.0173569c0.2281342,0.333765,0.6836166,0.4193954,1.0173798,0.1912842  c0.2206078-0.1507988,0.3300018-0.4008827,0.3148384-0.6495209l3.0688133-2.0975666l0.0942535,0.0551033l5.3529587,3.0905895  l4.872509-2.8145103l0.0932236-0.0537891l0.6166954-0.354948l0.0035667-0.0035896v-5.8334084l5.2238922-3.0152884  l5.5896072,3.2268362l5.1478424-3.0191631c0.1081924,0.0654755,0.2336731,0.1053467,0.3693695,0.1053467  c0.3960266,0,0.7170792-0.3210516,0.7170792-0.7170744C70.9518661,14.8585691,70.6308136,14.5375395,70.234787,14.5375395z   M52.8319206,24.2987537l-4.5139275,2.6073818l-4.8688545-2.8110733v-5.6245766l0.0427399-0.0250988l4.8262482-2.7835884  l4.8653069,2.805275v5.6292362l-0.2579803,0.1484795L52.8319206,24.2987537z M55.5384102,12.6903486L53,15.2287579  l-2.5384102-2.5384092c-0.6154518-0.6154537-0.6154518-1.6133022,0-2.228756l0.0000038-0.0000019  c0.6154518-0.6154547,1.6133003-0.6154547,2.228756,0L53,10.7712421l0.3096504-0.3096514  c0.6154556-0.6154547,1.6133041-0.6154547,2.228756,0l0.0000038,0.0000019  C56.153862,11.0770464,56.153862,12.0748949,55.5384102,12.6903486z M69.6153412,22.4990368L67.5,24.6143799l-2.1153412-2.1153431  c-0.5128784-0.5128765-0.5128784-1.3444176,0-1.857296v-0.0000019c0.5128784-0.5128784,1.3444214-0.5128784,1.8572998,0  L67.5,20.8997822l0.2580414-0.2580433c0.5128784-0.5128784,1.3444214-0.5128784,1.8572998,0v0.0000019  C70.1282196,21.1546192,70.1282196,21.9861603,69.6153412,22.4990368z M62.4614792,26.1387405L59.5,29.1002178l-2.9614792-2.9614773  c-0.718029-0.7180309-0.718029-1.8821869,0-2.6002159l0.0000038-0.0000019c0.718029-0.7180309,1.8821869-0.7180309,2.6002159,0  L59.5,23.8997822l0.3612595-0.3612595c0.718029-0.7180309,1.8821869-0.7180309,2.6002159,0l0.0000038,0.0000019  C63.1795082,24.2565536,63.1795082,25.4207096,62.4614792,26.1387405z"/><text x="0" y="115" fill="#000000" font-size="5px" font-weight="bold" font-family="'Helvetica Neue', Helvetica, Arial-Unicode, Arial, Sans-serif">Created by huijae Jang</text><text x="0" y="120" fill="#000000" font-size="5px" font-weight="bold" font-family="'Helvetica Neue', Helvetica, Arial-Unicode, Arial, Sans-serif">from the Noun Project</text></svg>